# WaveFront *.obj file (generated by Autodesk ATF)

mtllib 303005b4-29fe-480f-a456-56fed1a8c664.mtl

g Body3

v 101.000000 5.000000 10.000000
v 101.000000 -5.000000 10.000000
v 101.000000 -5.000000 0.000000
v 101.000000 5.000000 0.000000
v 0.000000 -5.000000 10.000000
v 0.000000 -5.000000 0.000000
v 0.000000 5.000000 0.000000
v 0.000000 5.000000 10.000000
vt 0.500000 0.500000 0.000000
vt -0.500000 0.500000 0.000000
vt 0.500000 -0.500000 0.000000
vt -0.500000 -0.500000 0.000000
vt 5.000000 0.500000 0.000000
vt -5.100000 0.500000 0.000000
vt 5.000000 -0.500000 0.000000
vt -5.100000 -0.500000 0.000000
vt 5.000000 0.500000 0.000000
vt -5.100000 0.500000 0.000000
vt 5.000000 -0.500000 0.000000
vt -5.100000 -0.500000 0.000000
vt -5.000000 -0.500000 0.000000
vt 5.100000 -0.500000 0.000000
vt -5.000000 0.500000 0.000000
vt 5.100000 0.500000 0.000000
vt -0.500000 -0.500000 0.000000
vt 0.500000 -0.500000 0.000000
vt -0.500000 0.500000 0.000000
vt 0.500000 0.500000 0.000000
vt 5.100000 0.500000 0.000000
vt -5.000000 0.500000 0.000000
vt 5.100000 -0.500000 0.000000
vt -5.000000 -0.500000 0.000000
vn 0.100000 0.000000 0.000000
vn 0.100000 0.000000 0.000000
vn 0.100000 0.000000 0.000000
vn 0.100000 0.000000 0.000000
vn 0.000000 -0.100000 0.000000
vn 0.000000 -0.100000 0.000000
vn 0.000000 -0.100000 0.000000
vn 0.000000 -0.100000 0.000000
vn 0.000000 0.000000 -0.100000
vn 0.000000 0.000000 -0.100000
vn 0.000000 0.000000 -0.100000
vn 0.000000 0.000000 -0.100000
vn -0.000000 0.100000 -0.000000
vn -0.000000 0.100000 -0.000000
vn -0.000000 0.100000 -0.000000
vn -0.000000 0.100000 -0.000000
vn -0.100000 0.000000 0.000000
vn -0.100000 0.000000 0.000000
vn -0.100000 0.000000 0.000000
vn -0.100000 0.000000 0.000000
vn 0.000000 0.000000 0.100000
vn 0.000000 0.000000 0.100000
vn 0.000000 0.000000 0.100000
vn 0.000000 0.000000 0.100000
usemtl ABS_(White)
f 2/1/1 3/2/2 1/3/3
f 1/3/3 3/2/2 4/4/4
f 6/5/5 3/6/6 5/7/7
f 5/7/7 3/6/6 2/8/8
f 7/9/9 4/10/10 6/11/11
f 6/11/11 4/10/10 3/12/12
f 8/13/13 1/14/14 7/15/15
f 7/15/15 1/14/14 4/16/16
f 6/17/17 5/18/18 7/19/19
f 7/19/19 5/18/18 8/20/20
f 1/21/21 8/22/22 2/23/23
f 2/23/23 8/22/22 5/24/24

g Body4

v -10.000000 -5.000000 10.000000
v 0.000000 -5.000000 10.000000
v 0.000000 -5.000000 105.000000
v -10.000000 -5.000000 105.000000
v -10.000000 5.000000 10.000000
v 0.000000 5.000000 10.000000
v -10.000000 5.000000 105.000000
v 0.000000 5.000000 105.000000
vt 5.000000 -0.500000 0.000000
vt 5.000000 -10.000000 0.000000
vt 6.000000 -0.500000 0.000000
vt 6.000000 -10.000000 0.000000
vt -0.750000 -0.500000 0.000000
vt 0.250000 -0.500000 0.000000
vt -0.750000 0.500000 0.000000
vt 0.250000 0.500000 0.000000
vt -4.500000 -0.500000 0.000000
vt 5.000000 -0.500000 0.000000
vt -4.500000 0.500000 0.000000
vt 5.000000 0.500000 0.000000
vt 0.500000 0.500000 0.000000
vt -0.500000 0.500000 0.000000
vt 0.500000 -0.500000 0.000000
vt -0.500000 -0.500000 0.000000
vt 4.500000 0.500000 0.000000
vt -5.000000 0.500000 0.000000
vt 4.500000 -0.500000 0.000000
vt -5.000000 -0.500000 0.000000
vt -5.000000 -0.500000 0.000000
vt -6.000000 -0.500000 0.000000
vt -5.000000 -10.000000 0.000000
vt -6.000000 -10.000000 0.000000
vn 0.000000 -0.100000 0.000000
vn 0.000000 -0.100000 0.000000
vn 0.000000 -0.100000 0.000000
vn 0.000000 -0.100000 0.000000
vn 0.000000 0.000000 -0.100000
vn 0.000000 0.000000 -0.100000
vn 0.000000 0.000000 -0.100000
vn 0.000000 0.000000 -0.100000
vn -0.100000 0.000000 0.000000
vn -0.100000 0.000000 0.000000
vn -0.100000 0.000000 0.000000
vn -0.100000 0.000000 0.000000
vn 0.000000 0.000000 0.100000
vn 0.000000 0.000000 0.100000
vn 0.000000 0.000000 0.100000
vn 0.000000 0.000000 0.100000
vn 0.100000 0.000000 0.000000
vn 0.100000 0.000000 0.000000
vn 0.100000 0.000000 0.000000
vn 0.100000 0.000000 0.000000
vn -0.000000 0.100000 -0.000000
vn -0.000000 0.100000 -0.000000
vn -0.000000 0.100000 -0.000000
vn -0.000000 0.100000 -0.000000
usemtl ABS_(White)_(1)
f 10/25/25 11/26/26 9/27/27
f 9/27/27 11/26/26 12/28/28
f 9/29/29 13/30/30 10/31/31
f 10/31/31 13/30/30 14/32/32
f 9/33/33 12/34/34 13/35/35
f 13/35/35 12/34/34 15/36/36
f 15/37/37 12/38/38 16/39/39
f 16/39/39 12/38/38 11/40/40
f 14/41/41 16/42/42 10/43/43
f 10/43/43 16/42/42 11/44/44
f 14/45/45 13/46/46 16/47/47
f 16/47/47 13/46/46 15/48/48

g Body5

v 0.000000 5.000000 0.000000
v -10.000000 5.000000 0.000000
v -10.000000 100.000000 0.000000
v 0.000000 100.000000 0.000000
v 0.000000 5.000000 10.000000
v 0.000000 100.000000 10.000000
v -10.000000 100.000000 10.000000
v -10.000000 5.000000 10.000000
vt 5.000000 0.500000 0.000000
vt 6.000000 0.500000 0.000000
vt 5.000000 10.000000 0.000000
vt 6.000000 10.000000 0.000000
vt 4.500000 0.500000 0.000000
vt -5.000000 0.500000 0.000000
vt 4.500000 -0.500000 0.000000
vt -5.000000 -0.500000 0.000000
vt 0.500000 0.500000 0.000000
vt -0.500000 0.500000 0.000000
vt 0.500000 -0.500000 0.000000
vt -0.500000 -0.500000 0.000000
vt -4.500000 -0.500000 0.000000
vt 5.000000 -0.500000 0.000000
vt -4.500000 0.500000 0.000000
vt 5.000000 0.500000 0.000000
vt -5.500000 0.500000 0.000000
vt -4.500000 0.500000 0.000000
vt -5.500000 10.000000 0.000000
vt -4.500000 10.000000 0.000000
vt -0.500000 -0.500000 0.000000
vt 0.500000 -0.500000 0.000000
vt -0.500000 0.500000 0.000000
vt 0.500000 0.500000 0.000000
vn 0.000000 0.000000 -0.100000
vn 0.000000 0.000000 -0.100000
vn 0.000000 0.000000 -0.100000
vn 0.000000 0.000000 -0.100000
vn 0.100000 0.000000 0.000000
vn 0.100000 0.000000 0.000000
vn 0.100000 0.000000 0.000000
vn 0.100000 0.000000 0.000000
vn 0.000000 0.100000 0.000000
vn 0.000000 0.100000 0.000000
vn 0.000000 0.100000 0.000000
vn 0.000000 0.100000 0.000000
vn 0.000000 0.000000 0.100000
vn 0.000000 0.000000 0.100000
vn 0.000000 0.000000 0.100000
vn 0.000000 0.000000 0.100000
vn -0.100000 0.000000 0.000000
vn -0.100000 0.000000 0.000000
vn -0.100000 0.000000 0.000000
vn -0.100000 0.000000 0.000000
vn 0.000000 -0.100000 0.000000
vn 0.000000 -0.100000 0.000000
vn 0.000000 -0.100000 0.000000
vn 0.000000 -0.100000 0.000000
usemtl ABS_(White)_(1)_(1)
f 17/49/49 18/50/50 20/51/51
f 20/51/51 18/50/50 19/52/52
f 17/53/53 20/54/54 21/55/55
f 21/55/55 20/54/54 22/56/56
f 19/57/57 23/58/58 20/59/59
f 20/59/59 23/58/58 22/60/60
f 21/61/61 22/62/62 24/63/63
f 24/63/63 22/62/62 23/64/64
f 18/65/65 24/66/66 19/67/67
f 19/67/67 24/66/66 23/68/68
f 24/69/69 18/70/70 21/71/71
f 21/71/71 18/70/70 17/72/72

g Body6

v -10.000000 -5.000000 10.000000
v -10.000000 5.000000 10.000000
v -10.000000 5.000000 0.000000
v -10.000000 -5.000000 0.000000
v 0.000000 5.000000 10.000000
v 0.000000 -5.000000 10.000000
v 0.000000 -5.000000 0.000000
v 0.000000 5.000000 0.000000
vt 0.500000 0.500000 0.000000
vt -0.500000 0.500000 0.000000
vt 0.500000 -0.500000 0.000000
vt -0.500000 -0.500000 0.000000
vt -0.500000 -0.500000 0.000000
vt 0.500000 -0.500000 0.000000
vt -0.500000 0.500000 0.000000
vt 0.500000 0.500000 0.000000
vt -0.500000 -0.500000 0.000000
vt 0.500000 -0.500000 0.000000
vt -0.500000 0.500000 0.000000
vt 0.500000 0.500000 0.000000
vt 0.500000 0.500000 0.000000
vt -0.500000 0.500000 0.000000
vt 0.500000 -0.500000 0.000000
vt -0.500000 -0.500000 0.000000
vt 0.500000 0.500000 0.000000
vt -0.500000 0.500000 0.000000
vt 0.500000 -0.500000 0.000000
vt -0.500000 -0.500000 0.000000
vt -0.500000 -0.500000 0.000000
vt 0.500000 -0.500000 0.000000
vt -0.500000 0.500000 0.000000
vt 0.500000 0.500000 0.000000
vn -0.100000 0.000000 0.000000
vn -0.100000 0.000000 0.000000
vn -0.100000 0.000000 0.000000
vn -0.100000 0.000000 0.000000
vn 0.100000 0.000000 0.000000
vn 0.100000 0.000000 0.000000
vn 0.100000 0.000000 0.000000
vn 0.100000 0.000000 0.000000
vn 0.000000 -0.100000 0.000000
vn 0.000000 -0.100000 0.000000
vn 0.000000 -0.100000 0.000000
vn 0.000000 -0.100000 0.000000
vn 0.000000 0.000000 -0.100000
vn 0.000000 0.000000 -0.100000
vn 0.000000 0.000000 -0.100000
vn 0.000000 0.000000 -0.100000
vn -0.000000 0.100000 -0.000000
vn -0.000000 0.100000 -0.000000
vn -0.000000 0.100000 -0.000000
vn -0.000000 0.100000 -0.000000
vn 0.000000 0.000000 0.100000
vn 0.000000 0.000000 0.100000
vn 0.000000 0.000000 0.100000
vn 0.000000 0.000000 0.100000
usemtl ABS_(White)_(1)_(1)_(1)
f 26/73/73 27/74/74 25/75/75
f 25/75/75 27/74/74 28/76/76
f 30/77/77 31/78/78 29/79/79
f 29/79/79 31/78/78 32/80/80
f 28/81/81 31/82/82 25/83/83
f 25/83/83 31/82/82 30/84/84
f 27/85/85 32/86/86 28/87/87
f 28/87/87 32/86/86 31/88/88
f 26/89/89 29/90/90 27/91/91
f 27/91/91 29/90/90 32/92/92
f 25/93/93 30/94/94 26/95/95
f 26/95/95 30/94/94 29/96/96

g Body8

v 101.000000 7.500000 12.500000
v 117.083802 0.000000 5.000000
v 101.000000 7.500000 -2.500000
v 101.000000 -7.500000 -2.500000
v 101.000000 -7.500000 12.500000
vt 0.000000 0.000000 0.000000
vt -0.750000 1.774651 0.000000
vt -1.500000 0.000000 0.000000
vt 0.000000 0.000000 0.000000
vt -0.750000 1.774651 0.000000
vt -1.500000 0.000000 0.000000
vt 0.000000 0.000000 0.000000
vt -0.750000 1.774651 0.000000
vt -1.500000 0.000000 0.000000
vt 0.000000 0.000000 0.000000
vt -0.750000 1.774651 0.000000
vt -1.500000 0.000000 0.000000
vt -0.750000 -0.750000 0.000000
vt 0.750000 -0.750000 0.000000
vt -0.750000 0.750000 0.000000
vt 0.750000 0.750000 0.000000
vn 0.042262 0.090631 0.000000
vn 0.042262 0.090631 0.000000
vn 0.042262 0.090631 0.000000
vn 0.042262 0.000000 -0.090631
vn 0.042262 0.000000 -0.090631
vn 0.042262 0.000000 -0.090631
vn 0.042262 -0.090631 0.000000
vn 0.042262 -0.090631 0.000000
vn 0.042262 -0.090631 0.000000
vn 0.042262 0.000000 0.090631
vn 0.042262 0.000000 0.090631
vn 0.042262 0.000000 0.090631
vn -0.100000 0.000000 0.000000
vn -0.100000 0.000000 0.000000
vn -0.100000 0.000000 0.000000
vn -0.100000 0.000000 0.000000
usemtl ABS_(White)
f 33/97/97 34/98/98 35/99/99
f 35/100/100 34/101/101 36/102/102
f 36/103/103 34/104/104 37/105/105
f 37/106/106 34/107/107 33/108/108
f 33/109/109 35/110/110 37/111/111
f 37/111/111 35/110/110 36/112/112

g Body9

v 2.500000 -7.500000 105.000000
v -5.000000 -0.000000 121.083802
v -12.500000 -7.500000 105.000000
v -12.500000 7.500000 105.000000
v 2.500000 7.500000 105.000000
vt 0.000000 0.000000 0.000000
vt -0.750000 1.774651 0.000000
vt -1.500000 0.000000 0.000000
vt 0.000000 0.000000 0.000000
vt -0.750000 1.774651 0.000000
vt -1.500000 0.000000 0.000000
vt 0.000000 0.000000 0.000000
vt -0.750000 1.774651 0.000000
vt -1.500000 0.000000 0.000000
vt 0.000000 0.000000 0.000000
vt -0.750000 1.774651 0.000000
vt -1.500000 0.000000 0.000000
vt -0.750000 -0.750000 0.000000
vt 0.750000 -0.750000 0.000000
vt -0.750000 0.750000 0.000000
vt 0.750000 0.750000 0.000000
vn 0.000000 -0.090631 0.042262
vn 0.000000 -0.090631 0.042262
vn 0.000000 -0.090631 0.042262
vn -0.090631 0.000000 0.042262
vn -0.090631 0.000000 0.042262
vn -0.090631 0.000000 0.042262
vn 0.000000 0.090631 0.042262
vn 0.000000 0.090631 0.042262
vn 0.000000 0.090631 0.042262
vn 0.090631 0.000000 0.042262
vn 0.090631 0.000000 0.042262
vn 0.090631 0.000000 0.042262
vn 0.000000 0.000000 -0.100000
vn 0.000000 0.000000 -0.100000
vn 0.000000 0.000000 -0.100000
vn 0.000000 0.000000 -0.100000
usemtl ABS_(White)_(1)
f 38/113/113 39/114/114 40/115/115
f 40/116/116 39/117/117 41/118/118
f 41/119/119 39/120/120 42/121/121
f 42/122/122 39/123/123 38/124/124
f 38/125/125 40/126/126 42/127/127
f 42/127/127 40/126/126 41/128/128

g Body10

v 2.500000 100.000000 12.500000
v -5.000000 116.083802 5.000000
v -12.500000 100.000000 12.500000
v -12.500000 100.000000 -2.500000
v 2.500000 100.000000 -2.500000
vt 0.000000 0.000000 0.000000
vt -0.750000 1.774651 0.000000
vt -1.500000 0.000000 0.000000
vt 0.000000 0.000000 0.000000
vt -0.750000 1.774651 0.000000
vt -1.500000 0.000000 0.000000
vt 0.000000 0.000000 0.000000
vt -0.750000 1.774651 0.000000
vt -1.500000 0.000000 0.000000
vt 0.000000 0.000000 0.000000
vt -0.750000 1.774651 0.000000
vt -1.500000 0.000000 0.000000
vt -0.750000 -0.750000 0.000000
vt 0.750000 -0.750000 0.000000
vt -0.750000 0.750000 0.000000
vt 0.750000 0.750000 0.000000
vn 0.000000 0.042262 0.090631
vn 0.000000 0.042262 0.090631
vn 0.000000 0.042262 0.090631
vn -0.090631 0.042262 0.000000
vn -0.090631 0.042262 0.000000
vn -0.090631 0.042262 0.000000
vn 0.000000 0.042262 -0.090631
vn 0.000000 0.042262 -0.090631
vn 0.000000 0.042262 -0.090631
vn 0.090631 0.042262 0.000000
vn 0.090631 0.042262 0.000000
vn 0.090631 0.042262 0.000000
vn 0.000000 -0.100000 0.000000
vn 0.000000 -0.100000 0.000000
vn 0.000000 -0.100000 0.000000
vn 0.000000 -0.100000 0.000000
usemtl ABS_(White)_(1)_(1)
f 43/129/129 44/130/130 45/131/131
f 45/132/132 44/133/133 46/134/134
f 46/135/135 44/136/136 47/137/137
f 47/138/138 44/139/139 43/140/140
f 43/141/141 45/142/142 47/143/143
f 47/143/143 45/142/142 46/144/144

# 47 vertices
# 144 texture params
# 144 normals
# 66 facets

# 7 groups
